<svg xmlns="http://www.w3.org/2000/svg" width="160" height="160" viewBox="0 0 128 128" role="img" aria-label="Antivirus shield logo">
  <defs>
    <linearGradient id="g1" x1="0%" x2="100%" y1="0%" y2="100%">
      <stop offset="0%" stop-color="#41D1FF"/>
      <stop offset="100%" stop-color="#BD34FE"/>
    </linearGradient>
    <linearGradient id="g2" x1="0%" x2="100%" y1="0%" y2="100%">
      <stop offset="0%" stop-color="#FFEA83"/>
      <stop offset="100%" stop-color="#FFA800"/>
    </linearGradient>
    <clipPath id="clipShield">
      <path d="M64 6 L24 18 C20 20 18 24 18 29 v34 c0 26 34 48 46 51 12-3 46-25 46-51 V29 c0-5-2-9-6-11 L64 6z"/>
    </clipPath>
  </defs>

  <!-- outer shield -->
  <path d="M64 6 L24 18 C20 20 18 24 18 29 v34 c0 26 34 48 46 51 12-3 46-25 46-51 V29 c0-5-2-9-6-11 L64 6z"
        fill="url(#g1)" stroke="#0f1724" stroke-opacity="0.06" stroke-width="1.5"/>

  <!-- scan beam (clipped) -->
  <g clip-path="url(#clipShield)">
    <rect x="18" y="34" width="92" height="16" fill="url(#g2)" opacity="0.95" transform="rotate(-8 64 42)"/>
    <rect x="18" y="56" width="92" height="8" fill="#ffffff" opacity="0.06" transform="rotate(-8 64 60)"/>
  </g>

  <!-- inner panel -->
  <path d="M64 18 L40 26 v20 c0 16 18 30 24 32 6-2 24-16 24-32 V26 L64 18z"
        fill="#ffffff" opacity="0.08"/>

  <!-- check mark -->
  <path d="M50 58 l8 8 l20 -22" fill="none" stroke="#fff" stroke-width="5" stroke-linecap="round" stroke-linejoin="round"/>

  <!-- subtle glow -->
  <ellipse cx="64" cy="18" rx="28" ry="8" fill="#fff" opacity="0.03"/>
</svg>
